<?xml version="1.0" encoding="UTF-8"?>
<svg xmlns="http://www.w3.org/2000/svg" version="1.1" width="500" height="500" viewBox="0 0 500 500"><rect x="0" y="0" width="500" height="500" fill="#ffffff"/><g transform="scale(17.241)"><g transform="translate(0,0)"><path fill-rule="evenodd" d="M8 0.25L8 2.75A0.25 0.25 0 0 0 8.25 3L8.75 3A0.25 0.25 0 0 1 9 3.25L9 3.75A0.25 0.25 0 0 0 9.25 4L9.75 4A0.25 0.25 0 0 1 10 4.25L10 4.75A0.25 0.25 0 0 1 9.75 5L8.25 5A0.25 0.25 0 0 0 8 5.25L8 9.75A0.25 0.25 0 0 0 8.25 10L8.75 10A0.25 0.25 0 0 1 9 10.25L9 10.75A0.25 0.25 0 0 0 9.25 11L9.75 11A0.25 0.25 0 0 1 10 11.25L10 11.75A0.25 0.25 0 0 1 9.75 12L9.25 12A0.25 0.25 0 0 0 9 12.25L9 12.75A0.25 0.25 0 0 1 8.75 13L8.25 13A0.25 0.25 0 0 0 8 13.25L8 13.75A0.25 0.25 0 0 1 7.75 14L6.25 14A0.25 0.25 0 0 1 6 13.75L6 13.25A0.25 0.25 0 0 1 6.25 13L6.75 13A0.25 0.25 0 0 0 7 12.75L7 12.25A0.25 0.25 0 0 0 6.75 12L5.25 12A0.25 0.25 0 0 1 5 11.75L5 11.25A0.25 0.25 0 0 1 5.25 11L6.75 11A0.25 0.25 0 0 0 7 10.75L7 10.25A0.25 0.25 0 0 0 6.75 10L6.25 10A0.25 0.25 0 0 1 6 9.75L6 9.25A0.25 0.25 0 0 1 6.25 9L6.75 9A0.25 0.25 0 0 0 7 8.75L7 8.25A0.25 0.25 0 0 0 6.75 8L6.25 8A0.25 0.25 0 0 0 6 8.25L6 8.75A0.25 0.25 0 0 1 5.75 9L5.25 9A0.25 0.25 0 0 1 5 8.75L5 8.25A0.25 0.25 0 0 0 4.75 8L2.25 8A0.25 0.25 0 0 0 2 8.25L2 8.75A0.25 0.25 0 0 1 1.75 9L0.25 9A0.25 0.25 0 0 0 0 9.25L0 14.75A0.25 0.25 0 0 0 0.25 15L0.75 15A0.25 0.25 0 0 1 1 15.25L1 16.75A0.25 0.25 0 0 1 0.75 17L0.25 17A0.25 0.25 0 0 0 0 17.25L0 20.75A0.25 0.25 0 0 0 0.25 21L0.75 21A0.25 0.25 0 0 0 1 20.75L1 18.25A0.25 0.25 0 0 1 1.25 18L1.75 18A0.25 0.25 0 0 0 2 17.75L2 17.25A0.25 0.25 0 0 1 2.25 17L2.75 17A0.25 0.25 0 0 1 3 17.25L3 17.75A0.25 0.25 0 0 0 3.25 18L3.75 18A0.25 0.25 0 0 1 4 18.25L4 18.75A0.25 0.25 0 0 1 3.75 19L2.25 19A0.25 0.25 0 0 0 2 19.25L2 19.75A0.25 0.25 0 0 0 2.25 20L3.75 20A0.25 0.25 0 0 0 4 19.75L4 19.25A0.25 0.25 0 0 1 4.25 19L6.75 19A0.25 0.25 0 0 1 7 19.25L7 19.75A0.25 0.25 0 0 1 6.75 20L5.25 20A0.25 0.25 0 0 0 5 20.25L5 20.75A0.25 0.25 0 0 0 5.25 21L6.75 21A0.25 0.25 0 0 0 7 20.75L7 20.25A0.25 0.25 0 0 1 7.25 20L9.75 20A0.25 0.25 0 0 0 10 19.75L10 19.25A0.25 0.25 0 0 0 9.75 19L9.25 19A0.25 0.25 0 0 1 9 18.75L9 18.25A0.25 0.25 0 0 1 9.25 18L12.75 18A0.25 0.25 0 0 1 13 18.25L13 18.75A0.25 0.25 0 0 1 12.75 19L11.25 19A0.25 0.25 0 0 0 11 19.25L11 19.75A0.25 0.25 0 0 0 11.25 20L11.75 20A0.25 0.25 0 0 1 12 20.25L12 20.75A0.25 0.25 0 0 1 11.75 21L11.25 21A0.25 0.25 0 0 0 11 21.25L11 21.75A0.25 0.25 0 0 1 10.75 22L9.25 22A0.25 0.25 0 0 1 9 21.75L9 21.25A0.25 0.25 0 0 0 8.75 21L8.25 21A0.25 0.25 0 0 0 8 21.25L8 21.75A0.25 0.25 0 0 0 8.25 22L8.75 22A0.25 0.25 0 0 1 9 22.25L9 23.75A0.25 0.25 0 0 1 8.75 24L8.25 24A0.25 0.25 0 0 0 8 24.25L8 26.75A0.25 0.25 0 0 0 8.25 27L9.75 27A0.25 0.25 0 0 1 10 27.25L10 28.75A0.25 0.25 0 0 0 10.25 29L12.75 29A0.25 0.25 0 0 0 13 28.75L13 28.25A0.25 0.25 0 0 1 13.25 28L13.75 28A0.25 0.25 0 0 0 14 27.75L14 27.25A0.25 0.25 0 0 1 14.25 27L14.75 27A0.25 0.25 0 0 1 15 27.25L15 27.75A0.25 0.25 0 0 0 15.25 28L15.75 28A0.25 0.25 0 0 0 16 27.75L16 27.25A0.25 0.25 0 0 0 15.75 27L15.25 27A0.25 0.25 0 0 1 15 26.75L15 26.25A0.25 0.25 0 0 1 15.25 26L15.75 26A0.25 0.25 0 0 0 16 25.75L16 25.25A0.25 0.25 0 0 1 16.25 25L16.75 25A0.25 0.25 0 0 1 17 25.25L17 25.75A0.25 0.25 0 0 0 17.25 26L17.75 26A0.25 0.25 0 0 1 18 26.25L18 26.75A0.25 0.25 0 0 1 17.75 27L17.25 27A0.25 0.25 0 0 0 17 27.25L17 27.75A0.25 0.25 0 0 0 17.25 28L18.75 28A0.25 0.25 0 0 1 19 28.25L19 28.75A0.25 0.25 0 0 0 19.25 29L23.75 29A0.25 0.25 0 0 0 24 28.75L24 28.25A0.25 0.25 0 0 1 24.25 28L24.75 28A0.25 0.25 0 0 1 25 28.25L25 28.75A0.25 0.25 0 0 0 25.25 29L26.75 29A0.25 0.25 0 0 0 27 28.75L27 28.25A0.25 0.25 0 0 1 27.25 28L27.75 28A0.25 0.25 0 0 0 28 27.75L28 26.25A0.25 0.25 0 0 0 27.75 26L27.25 26A0.25 0.25 0 0 1 27 25.75L27 24.25A0.25 0.25 0 0 1 27.25 24L27.75 24A0.25 0.25 0 0 0 28 23.75L28 22.25A0.25 0.25 0 0 1 28.25 22L28.75 22A0.25 0.25 0 0 0 29 21.75L29 21.25A0.25 0.25 0 0 0 28.75 21L28.25 21A0.25 0.25 0 0 1 28 20.75L28 20.25A0.25 0.25 0 0 0 27.75 20L22.25 20A0.25 0.25 0 0 1 22 19.75L22 19.25A0.25 0.25 0 0 1 22.25 19L24.75 19A0.25 0.25 0 0 0 25 18.75L25 18.25A0.25 0.25 0 0 1 25.25 18L25.75 18A0.25 0.25 0 0 1 26 18.25L26 18.75A0.25 0.25 0 0 0 26.25 19L26.75 19A0.25 0.25 0 0 0 27 18.75L27 18.25A0.25 0.25 0 0 1 27.25 18L27.75 18A0.25 0.25 0 0 0 28 17.75L28 17.25A0.25 0.25 0 0 0 27.75 17L27.25 17A0.25 0.25 0 0 0 27 17.25L27 17.75A0.25 0.25 0 0 1 26.75 18L26.25 18A0.25 0.25 0 0 1 26 17.75L26 15.25A0.25 0.25 0 0 1 26.25 15L26.75 15A0.25 0.25 0 0 1 27 15.25L27 15.75A0.25 0.25 0 0 0 27.25 16L27.75 16A0.25 0.25 0 0 0 28 15.75L28 15.25A0.25 0.25 0 0 0 27.75 15L27.25 15A0.25 0.25 0 0 1 27 14.75L27 14.25A0.25 0.25 0 0 1 27.25 14L28.75 14A0.25 0.25 0 0 0 29 13.75L29 13.25A0.25 0.25 0 0 0 28.75 13L27.25 13A0.25 0.25 0 0 1 27 12.75L27 12.25A0.25 0.25 0 0 1 27.25 12L27.75 12A0.25 0.25 0 0 0 28 11.75L28 11.25A0.25 0.25 0 0 0 27.75 11L27.25 11A0.25 0.25 0 0 0 27 11.25L27 11.75A0.25 0.25 0 0 1 26.75 12L26.25 12A0.25 0.25 0 0 1 26 11.75L26 9.25A0.25 0.25 0 0 1 26.25 9L26.75 9A0.25 0.25 0 0 1 27 9.25L27 9.75A0.25 0.25 0 0 0 27.25 10L27.75 10A0.25 0.25 0 0 0 28 9.75L28 9.25A0.25 0.25 0 0 1 28.25 9L28.75 9A0.25 0.25 0 0 0 29 8.75L29 8.25A0.25 0.25 0 0 0 28.75 8L26.25 8A0.25 0.25 0 0 0 26 8.25L26 8.75A0.25 0.25 0 0 1 25.75 9L25.25 9A0.25 0.25 0 0 0 25 9.25L25 11.75A0.25 0.25 0 0 0 25.25 12L25.75 12A0.25 0.25 0 0 1 26 12.25L26 12.75A0.25 0.25 0 0 1 25.75 13L24.25 13A0.25 0.25 0 0 1 24 12.75L24 11.25A0.25 0.25 0 0 0 23.75 11L20.25 11A0.25 0.25 0 0 1 20 10.75L20 10.25A0.25 0.25 0 0 1 20.25 10L21.75 10A0.25 0.25 0 0 0 22 9.75L22 9.25A0.25 0.25 0 0 1 22.25 9L22.75 9A0.25 0.25 0 0 1 23 9.25L23 9.75A0.25 0.25 0 0 0 23.25 10L23.75 10A0.25 0.25 0 0 0 24 9.75L24 8.25A0.25 0.25 0 0 0 23.75 8L21.25 8A0.25 0.25 0 0 0 21 8.25L21 8.75A0.25 0.25 0 0 1 20.75 9L20.25 9A0.25 0.25 0 0 0 20 9.25L20 9.75A0.25 0.25 0 0 1 19.75 10L19.25 10A0.25 0.25 0 0 1 19 9.75L19 9.25A0.25 0.25 0 0 0 18.75 9L16.25 9A0.25 0.25 0 0 1 16 8.75L16 8.25A0.25 0.25 0 0 1 16.25 8L18.75 8A0.25 0.25 0 0 0 19 7.75L19 6.25A0.25 0.25 0 0 0 18.75 6L18.25 6A0.25 0.25 0 0 1 18 5.75L18 5.25A0.25 0.25 0 0 1 18.25 5L19.75 5A0.25 0.25 0 0 1 20 5.25L20 6.75A0.25 0.25 0 0 0 20.25 7L20.75 7A0.25 0.25 0 0 0 21 6.75L21 5.25A0.25 0.25 0 0 0 20.75 5L20.25 5A0.25 0.25 0 0 1 20 4.75L20 4.25A0.25 0.25 0 0 1 20.25 4L20.75 4A0.25 0.25 0 0 0 21 3.75L21 3.25A0.25 0.25 0 0 0 20.75 3L20.25 3A0.25 0.25 0 0 0 20 3.25L20 3.75A0.25 0.25 0 0 1 19.75 4L18.25 4A0.25 0.25 0 0 1 18 3.75L18 3.25A0.25 0.25 0 0 0 17.75 3L17.25 3A0.25 0.25 0 0 0 17 3.25L17 3.75A0.25 0.25 0 0 1 16.75 4L16.25 4A0.25 0.25 0 0 1 16 3.75L16 3.25A0.25 0.25 0 0 0 15.75 3L14.25 3A0.25 0.25 0 0 1 14 2.75L14 2.25A0.25 0.25 0 0 1 14.25 2L17.75 2A0.25 0.25 0 0 0 18 1.75L18 1.25A0.25 0.25 0 0 0 17.75 1L14.25 1A0.25 0.25 0 0 0 14 1.25L14 1.75A0.25 0.25 0 0 1 13.75 2L13.25 2A0.25 0.25 0 0 1 13 1.75L13 1.25A0.25 0.25 0 0 0 12.75 1L12.25 1A0.25 0.25 0 0 0 12 1.25L12 1.75A0.25 0.25 0 0 1 11.75 2L11.25 2A0.25 0.25 0 0 0 11 2.25L11 2.75A0.25 0.25 0 0 1 10.75 3L9.25 3A0.25 0.25 0 0 1 9 2.75L9 0.25A0.25 0.25 0 0 0 8.75 0L8.25 0A0.25 0.25 0 0 0 8 0.25ZM20 1.25L20 1.75A0.25 0.25 0 0 0 20.25 2L20.75 2A0.25 0.25 0 0 0 21 1.75L21 1.25A0.25 0.25 0 0 0 20.75 1L20.25 1A0.25 0.25 0 0 0 20 1.25ZM12 3.25L12 3.75A0.25 0.25 0 0 0 12.25 4L12.75 4A0.25 0.25 0 0 0 13 3.75L13 3.25A0.25 0.25 0 0 0 12.75 3L12.25 3A0.25 0.25 0 0 0 12 3.25ZM15 4.25L15 4.75A0.25 0.25 0 0 1 14.75 5L14.25 5A0.25 0.25 0 0 0 14 5.25L14 5.75A0.25 0.25 0 0 1 13.75 6L13.25 6A0.25 0.25 0 0 0 13 6.25L13 6.75A0.25 0.25 0 0 1 12.75 7L12.25 7A0.25 0.25 0 0 1 12 6.75L12 5.25A0.25 0.25 0 0 0 11.75 5L10.25 5A0.25 0.25 0 0 0 10 5.25L10 5.75A0.25 0.25 0 0 1 9.75 6L9.25 6A0.25 0.25 0 0 0 9 6.25L9 6.75A0.25 0.25 0 0 0 9.25 7L9.75 7A0.25 0.25 0 0 0 10 6.75L10 6.25A0.25 0.25 0 0 1 10.25 6L10.75 6A0.25 0.25 0 0 1 11 6.25L11 6.75A0.25 0.25 0 0 0 11.25 7L11.75 7A0.25 0.25 0 0 1 12 7.25L12 7.75A0.25 0.25 0 0 1 11.75 8L11.25 8A0.25 0.25 0 0 0 11 8.25L11 8.75A0.25 0.25 0 0 1 10.75 9L10.25 9A0.25 0.25 0 0 1 10 8.75L10 8.25A0.25 0.25 0 0 0 9.75 8L9.25 8A0.25 0.25 0 0 0 9 8.25L9 8.75A0.25 0.25 0 0 0 9.25 9L9.75 9A0.25 0.25 0 0 1 10 9.25L10 10.75A0.25 0.25 0 0 0 10.25 11L10.75 11A0.25 0.25 0 0 1 11 11.25L11 11.75A0.25 0.25 0 0 1 10.75 12L10.25 12A0.25 0.25 0 0 0 10 12.25L10 14.75A0.25 0.25 0 0 1 9.75 15L9.25 15A0.25 0.25 0 0 1 9 14.75L9 14.25A0.25 0.25 0 0 0 8.75 14L8.25 14A0.25 0.25 0 0 0 8 14.25L8 14.75A0.25 0.25 0 0 1 7.75 15L6.25 15A0.25 0.25 0 0 1 6 14.75L6 14.25A0.25 0.25 0 0 0 5.75 14L5.25 14A0.25 0.25 0 0 1 5 13.75L5 13.25A0.25 0.25 0 0 0 4.75 13L4.25 13A0.25 0.25 0 0 0 4 13.25L4 13.75A0.25 0.25 0 0 1 3.75 14L3.25 14A0.25 0.25 0 0 1 3 13.75L3 12.25A0.25 0.25 0 0 1 3.25 12L3.75 12A0.25 0.25 0 0 0 4 11.75L4 11.25A0.25 0.25 0 0 0 3.75 11L3.25 11A0.25 0.25 0 0 0 3 11.25L3 11.75A0.25 0.25 0 0 1 2.75 12L2.25 12A0.25 0.25 0 0 0 2 12.25L2 13.75A0.25 0.25 0 0 0 2.25 14L2.75 14A0.25 0.25 0 0 1 3 14.25L3 16.75A0.25 0.25 0 0 0 3.25 17L4.75 17A0.25 0.25 0 0 1 5 17.25L5 17.75A0.25 0.25 0 0 0 5.25 18L6.75 18A0.25 0.25 0 0 0 7 17.75L7 17.25A0.25 0.25 0 0 0 6.75 17L6.25 17A0.25 0.25 0 0 1 6 16.75L6 16.25A0.25 0.25 0 0 1 6.25 16L7.75 16A0.25 0.25 0 0 1 8 16.25L8 17.75A0.25 0.25 0 0 0 8.25 18L8.75 18A0.25 0.25 0 0 0 9 17.75L9 16.25A0.25 0.25 0 0 1 9.25 16L10.75 16A0.25 0.25 0 0 1 11 16.25L11 16.75A0.25 0.25 0 0 0 11.25 17L11.75 17A0.25 0.25 0 0 0 12 16.75L12 15.25A0.25 0.25 0 0 1 12.25 15L12.75 15A0.25 0.25 0 0 1 13 15.25L13 15.75A0.25 0.25 0 0 0 13.25 16L13.75 16A0.25 0.25 0 0 1 14 16.25L14 16.75A0.25 0.25 0 0 1 13.75 17L13.25 17A0.25 0.25 0 0 0 13 17.25L13 17.75A0.25 0.25 0 0 0 13.25 18L13.75 18A0.25 0.25 0 0 0 14 17.75L14 17.25A0.25 0.25 0 0 1 14.25 17L14.75 17A0.25 0.25 0 0 1 15 17.25L15 19.75A0.25 0.25 0 0 1 14.75 20L13.25 20A0.25 0.25 0 0 0 13 20.25L13 20.75A0.25 0.25 0 0 1 12.75 21L12.25 21A0.25 0.25 0 0 0 12 21.25L12 21.75A0.25 0.25 0 0 0 12.25 22L12.75 22A0.25 0.25 0 0 0 13 21.75L13 21.25A0.25 0.25 0 0 1 13.25 21L13.75 21A0.25 0.25 0 0 1 14 21.25L14 21.75A0.25 0.25 0 0 0 14.25 22L15.75 22A0.25 0.25 0 0 1 16 22.25L16 22.75A0.25 0.25 0 0 1 15.75 23L11.25 23A0.25 0.25 0 0 0 11 23.25L11 24.75A0.25 0.25 0 0 0 11.25 25L12.75 25A0.25 0.25 0 0 0 13 24.75L13 24.25A0.25 0.25 0 0 1 13.25 24L16.75 24A0.25 0.25 0 0 0 17 23.75L17 23.25A0.25 0.25 0 0 1 17.25 23L17.75 23A0.25 0.25 0 0 0 18 22.75L18 22.25A0.25 0.25 0 0 1 18.25 22L18.75 22A0.25 0.25 0 0 0 19 21.75L19 21.25A0.25 0.25 0 0 1 19.25 21L19.75 21A0.25 0.25 0 0 0 20 20.75L20 20.25A0.25 0.25 0 0 1 20.25 20L20.75 20A0.25 0.25 0 0 0 21 19.75L21 19.25A0.25 0.25 0 0 0 20.75 19L20.25 19A0.25 0.25 0 0 1 20 18.75L20 18.25A0.25 0.25 0 0 1 20.25 18L23.75 18A0.25 0.25 0 0 0 24 17.75L24 16.25A0.25 0.25 0 0 0 23.75 16L23.25 16A0.25 0.25 0 0 1 23 15.75L23 15.25A0.25 0.25 0 0 1 23.25 15L25.75 15A0.25 0.25 0 0 0 26 14.75L26 14.25A0.25 0.25 0 0 0 25.75 14L24.25 14A0.25 0.25 0 0 1 24 13.75L24 13.25A0.25 0.25 0 0 0 23.75 13L23.25 13A0.25 0.25 0 0 1 23 12.75L23 12.25A0.25 0.25 0 0 0 22.75 12L22.25 12A0.25 0.25 0 0 0 22 12.25L22 12.75A0.25 0.25 0 0 1 21.75 13L21.25 13A0.25 0.25 0 0 1 21 12.75L21 12.25A0.25 0.25 0 0 0 20.75 12L20.25 12A0.25 0.25 0 0 0 20 12.25L20 12.75A0.25 0.25 0 0 0 20.25 13L20.75 13A0.25 0.25 0 0 1 21 13.25L21 13.75A0.25 0.25 0 0 0 21.25 14L21.75 14A0.25 0.25 0 0 1 22 14.25L22 14.75A0.25 0.25 0 0 1 21.75 15L20.25 15A0.25 0.25 0 0 1 20 14.75L20 14.25A0.25 0.25 0 0 0 19.75 14L19.25 14A0.25 0.25 0 0 1 19 13.75L19 12.25A0.25 0.25 0 0 0 18.75 12L18.25 12A0.25 0.25 0 0 0 18 12.25L18 14.75A0.25 0.25 0 0 0 18.25 15L18.75 15A0.25 0.25 0 0 1 19 15.25L19 15.75A0.25 0.25 0 0 1 18.75 16L17.25 16A0.25 0.25 0 0 1 17 15.75L17 13.25A0.25 0.25 0 0 0 16.75 13L16.25 13A0.25 0.25 0 0 0 16 13.25L16 13.75A0.25 0.25 0 0 1 15.75 14L15.25 14A0.25 0.25 0 0 0 15 14.25L15 14.75A0.25 0.25 0 0 1 14.75 15L13.25 15A0.25 0.25 0 0 1 13 14.75L13 13.25A0.25 0.25 0 0 0 12.75 13L11.25 13A0.25 0.25 0 0 1 11 12.75L11 12.25A0.25 0.25 0 0 1 11.25 12L11.75 12A0.25 0.25 0 0 0 12 11.75L12 11.25A0.25 0.25 0 0 1 12.25 11L12.75 11A0.25 0.25 0 0 0 13 10.75L13 10.25A0.25 0.25 0 0 1 13.25 10L13.75 10A0.25 0.25 0 0 0 14 9.75L14 9.25A0.25 0.25 0 0 0 13.75 9L13.25 9A0.25 0.25 0 0 1 13 8.75L13 7.25A0.25 0.25 0 0 1 13.25 7L13.75 7A0.25 0.25 0 0 1 14 7.25L14 7.75A0.25 0.25 0 0 0 14.25 8L15.75 8A0.25 0.25 0 0 0 16 7.75L16 6.25A0.25 0.25 0 0 1 16.25 6L16.75 6A0.25 0.25 0 0 1 17 6.25L17 6.75A0.25 0.25 0 0 0 17.25 7L17.75 7A0.25 0.25 0 0 0 18 6.75L18 6.25A0.25 0.25 0 0 0 17.75 6L17.25 6A0.25 0.25 0 0 1 17 5.75L17 5.25A0.25 0.25 0 0 0 16.75 5L16.25 5A0.25 0.25 0 0 1 16 4.75L16 4.25A0.25 0.25 0 0 0 15.75 4L15.25 4A0.25 0.25 0 0 0 15 4.25ZM14 6.25L14 6.75A0.25 0.25 0 0 0 14.25 7L14.75 7A0.25 0.25 0 0 0 15 6.75L15 6.25A0.25 0.25 0 0 0 14.75 6L14.25 6A0.25 0.25 0 0 0 14 6.25ZM2 9.25L2 9.75A0.25 0.25 0 0 0 2.25 10L4.75 10A0.25 0.25 0 0 0 5 9.75L5 9.25A0.25 0.25 0 0 0 4.75 9L2.25 9A0.25 0.25 0 0 0 2 9.25ZM11 9.25L11 10.75A0.25 0.25 0 0 0 11.25 11L11.75 11A0.25 0.25 0 0 0 12 10.75L12 9.25A0.25 0.25 0 0 0 11.75 9L11.25 9A0.25 0.25 0 0 0 11 9.25ZM15 9.25L15 11.75A0.25 0.25 0 0 1 14.75 12L14.25 12A0.25 0.25 0 0 0 14 12.25L14 12.75A0.25 0.25 0 0 0 14.25 13L14.75 13A0.25 0.25 0 0 0 15 12.75L15 12.25A0.25 0.25 0 0 1 15.25 12L16.75 12A0.25 0.25 0 0 0 17 11.75L17 11.25A0.25 0.25 0 0 1 17.25 11L17.75 11A0.25 0.25 0 0 0 18 10.75L18 10.25A0.25 0.25 0 0 0 17.75 10L16.25 10A0.25 0.25 0 0 1 16 9.75L16 9.25A0.25 0.25 0 0 0 15.75 9L15.25 9A0.25 0.25 0 0 0 15 9.25ZM22 13.25L22 13.75A0.25 0.25 0 0 0 22.25 14L22.75 14A0.25 0.25 0 0 0 23 13.75L23 13.25A0.25 0.25 0 0 0 22.75 13L22.25 13A0.25 0.25 0 0 0 22 13.25ZM11 14.25L11 14.75A0.25 0.25 0 0 0 11.25 15L11.75 15A0.25 0.25 0 0 0 12 14.75L12 14.25A0.25 0.25 0 0 0 11.75 14L11.25 14A0.25 0.25 0 0 0 11 14.25ZM15 16.25L15 16.75A0.25 0.25 0 0 0 15.25 17L15.75 17A0.25 0.25 0 0 0 16 16.75L16 16.25A0.25 0.25 0 0 0 15.75 16L15.25 16A0.25 0.25 0 0 0 15 16.25ZM19 16.25L19 16.75A0.25 0.25 0 0 1 18.75 17L18.25 17A0.25 0.25 0 0 0 18 17.25L18 17.75A0.25 0.25 0 0 1 17.75 18L16.25 18A0.25 0.25 0 0 0 16 18.25L16 18.75A0.25 0.25 0 0 0 16.25 19L18.75 19A0.25 0.25 0 0 0 19 18.75L19 17.25A0.25 0.25 0 0 1 19.25 17L21.75 17A0.25 0.25 0 0 0 22 16.75L22 16.25A0.25 0.25 0 0 0 21.75 16L19.25 16A0.25 0.25 0 0 0 19 16.25ZM15 20.25L15 20.75A0.25 0.25 0 0 0 15.25 21L15.75 21A0.25 0.25 0 0 1 16 21.25L16 21.75A0.25 0.25 0 0 0 16.25 22L16.75 22A0.25 0.25 0 0 0 17 21.75L17 21.25A0.25 0.25 0 0 1 17.25 21L17.75 21A0.25 0.25 0 0 0 18 20.75L18 20.25A0.25 0.25 0 0 0 17.75 20L15.25 20A0.25 0.25 0 0 0 15 20.25ZM21 21.25L21 23.75A0.25 0.25 0 0 0 21.25 24L23.75 24A0.25 0.25 0 0 0 24 23.75L24 21.25A0.25 0.25 0 0 0 23.75 21L21.25 21A0.25 0.25 0 0 0 21 21.25ZM25 21.25L25 24.75A0.25 0.25 0 0 1 24.75 25L24.25 25A0.25 0.25 0 0 0 24 25.25L24 25.75A0.25 0.25 0 0 1 23.75 26L23.25 26A0.25 0.25 0 0 1 23 25.75L23 25.25A0.25 0.25 0 0 0 22.75 25L20.25 25A0.25 0.25 0 0 1 20 24.75L20 23.25A0.25 0.25 0 0 0 19.75 23L19.25 23A0.25 0.25 0 0 0 19 23.25L19 24.75A0.25 0.25 0 0 0 19.25 25L19.75 25A0.25 0.25 0 0 1 20 25.25L20 25.75A0.25 0.25 0 0 1 19.75 26L19.25 26A0.25 0.25 0 0 0 19 26.25L19 27.75A0.25 0.25 0 0 0 19.25 28L21.75 28A0.25 0.25 0 0 0 22 27.75L22 27.25A0.25 0.25 0 0 0 21.75 27L21.25 27A0.25 0.25 0 0 1 21 26.75L21 26.25A0.25 0.25 0 0 1 21.25 26L22.75 26A0.25 0.25 0 0 1 23 26.25L23 26.75A0.25 0.25 0 0 0 23.25 27L23.75 27A0.25 0.25 0 0 0 24 26.75L24 26.25A0.25 0.25 0 0 1 24.25 26L25.75 26A0.25 0.25 0 0 1 26 26.25L26 26.75A0.25 0.25 0 0 1 25.75 27L25.25 27A0.25 0.25 0 0 0 25 27.25L25 27.75A0.25 0.25 0 0 0 25.25 28L26.75 28A0.25 0.25 0 0 0 27 27.75L27 26.25A0.25 0.25 0 0 0 26.75 26L26.25 26A0.25 0.25 0 0 1 26 25.75L26 24.25A0.25 0.25 0 0 1 26.25 24L26.75 24A0.25 0.25 0 0 0 27 23.75L27 23.25A0.25 0.25 0 0 0 26.75 23L26.25 23A0.25 0.25 0 0 1 26 22.75L26 22.25A0.25 0.25 0 0 1 26.25 22L27.75 22A0.25 0.25 0 0 0 28 21.75L28 21.25A0.25 0.25 0 0 0 27.75 21L25.25 21A0.25 0.25 0 0 0 25 21.25ZM22 22.25L22 22.75A0.25 0.25 0 0 0 22.25 23L22.75 23A0.25 0.25 0 0 0 23 22.75L23 22.25A0.25 0.25 0 0 0 22.75 22L22.25 22A0.25 0.25 0 0 0 22 22.25ZM9 25.25L9 25.75A0.25 0.25 0 0 0 9.25 26L9.75 26A0.25 0.25 0 0 1 10 26.25L10 26.75A0.25 0.25 0 0 0 10.25 27L10.75 27A0.25 0.25 0 0 0 11 26.75L11 26.25A0.25 0.25 0 0 0 10.75 26L10.25 26A0.25 0.25 0 0 1 10 25.75L10 25.25A0.25 0.25 0 0 0 9.75 25L9.25 25A0.25 0.25 0 0 0 9 25.25ZM12 26.25L12 27.75A0.25 0.25 0 0 0 12.25 28L12.75 28A0.25 0.25 0 0 0 13 27.75L13 26.25A0.25 0.25 0 0 0 12.75 26L12.25 26A0.25 0.25 0 0 0 12 26.25ZM0 0.25L0 6.75A0.25 0.25 0 0 0 0.25 7L6.75 7A0.25 0.25 0 0 0 7 6.75L7 0.25A0.25 0.25 0 0 0 6.75 0L0.25 0A0.25 0.25 0 0 0 0 0.25ZM1 1.25L1 5.75A0.25 0.25 0 0 0 1.25 6L5.75 6A0.25 0.25 0 0 0 6 5.75L6 1.25A0.25 0.25 0 0 0 5.75 1L1.25 1A0.25 0.25 0 0 0 1 1.25ZM2 2.25L2 4.75A0.25 0.25 0 0 0 2.25 5L4.75 5A0.25 0.25 0 0 0 5 4.75L5 2.25A0.25 0.25 0 0 0 4.75 2L2.25 2A0.25 0.25 0 0 0 2 2.25ZM22 0.25L22 6.75A0.25 0.25 0 0 0 22.25 7L28.75 7A0.25 0.25 0 0 0 29 6.75L29 0.25A0.25 0.25 0 0 0 28.75 0L22.25 0A0.25 0.25 0 0 0 22 0.25ZM23 1.25L23 5.75A0.25 0.25 0 0 0 23.25 6L27.75 6A0.25 0.25 0 0 0 28 5.75L28 1.25A0.25 0.25 0 0 0 27.75 1L23.25 1A0.25 0.25 0 0 0 23 1.25ZM24 2.25L24 4.75A0.25 0.25 0 0 0 24.25 5L26.75 5A0.25 0.25 0 0 0 27 4.75L27 2.25A0.25 0.25 0 0 0 26.75 2L24.25 2A0.25 0.25 0 0 0 24 2.25ZM0 22.25L0 28.75A0.25 0.25 0 0 0 0.25 29L6.75 29A0.25 0.25 0 0 0 7 28.75L7 22.25A0.25 0.25 0 0 0 6.75 22L0.25 22A0.25 0.25 0 0 0 0 22.25ZM1 23.25L1 27.75A0.25 0.25 0 0 0 1.25 28L5.75 28A0.25 0.25 0 0 0 6 27.75L6 23.25A0.25 0.25 0 0 0 5.75 23L1.25 23A0.25 0.25 0 0 0 1 23.25ZM2 24.25L2 26.75A0.25 0.25 0 0 0 2.25 27L4.75 27A0.25 0.25 0 0 0 5 26.75L5 24.25A0.25 0.25 0 0 0 4.75 24L2.25 24A0.25 0.25 0 0 0 2 24.25Z" fill="#000000"/></g></g></svg>
